<svg width="32" height="32" viewBox="0 0 32 32" fill="none" xmlns="http://www.w3.org/2000/svg">
<path d="M7 20H8V25C8 25.6 8.4 26 9 26C9.6 26 10 25.6 10 25V20H11C11.6 20 12 19.6 12 19V16C12 15.4 11.6 15 11 15H10V13C10 12.4 9.6 12 9 12C8.4 12 8 12.4 8 13V15H7C6.4 15 6 15.4 6 16V19C6 19.6 6.4 20 7 20Z" fill="black"/>
<path d="M14 17H15V25C15 25.6 15.4 26 16 26C16.6 26 17 25.6 17 25V17H18C18.6 17 19 16.6 19 16V13C19 12.4 18.6 12 18 12H14C13.4 12 13 12.4 13 13V16C13 16.6 13.4 17 14 17Z" fill="black"/>
<path d="M23 18C24.7 18 26 16.7 26 15C26 13.3 24.7 12 23 12C21.3 12 20 13.3 20 15C20 16.7 21.3 18 23 18Z" fill="black"/>
<path d="M23 26C24.7 26 26 24.7 26 23C26 21.3 24.7 20 23 20C21.3 20 20 21.3 20 23C20 24.7 21.3 26 23 26Z" fill="black"/>
<path d="M29 2H3C2.4 2 2 2.4 2 3V29C2 29.6 2.4 30 3 30H29C29.6 30 30 29.6 30 29V3C30 2.4 29.6 2 29 2ZM19 5H25C25.6 5 26 5.4 26 6C26 6.6 25.6 7 25 7H19C18.4 7 18 6.6 18 6C18 5.4 18.4 5 19 5ZM15.1 5.6C15.2 5.5 15.2 5.4 15.3 5.3C15.7 4.9 16.3 4.9 16.7 5.3C16.8 5.4 16.9 5.5 16.9 5.6C17 5.7 17 5.9 17 6C17 6.3 16.9 6.5 16.7 6.7C16.6 6.7 16.6 6.8 16.6 6.8C16.5 6.8 16.5 6.9 16.4 6.9C16.3 6.9 16.3 6.9 16.2 7H16C15.7 7 15.5 6.9 15.3 6.7C15.1 6.5 15 6.3 15 6C15 5.9 15 5.7 15.1 5.6V5.6ZM12.3 5.3C12.4 5.2 12.5 5.1 12.6 5.1C13 4.9 13.4 5 13.7 5.3C13.9 5.5 14 5.7 14 6C14 6.1 14 6.3 13.9 6.4C13.8 6.5 13.8 6.6 13.7 6.7C13.5 6.9 13.3 7 13 7C12.9 7 12.7 7 12.6 6.9C12.5 6.8 12.4 6.8 12.3 6.7C12.2 6.6 12.1 6.5 12.1 6.4C12 6.3 12 6.1 12 6C12 5.7 12.1 5.5 12.3 5.3V5.3ZM9.3 5.3C9.7 4.9 10.3 4.9 10.7 5.3C10.9 5.5 11 5.7 11 6C11 6.1 11 6.3 10.9 6.4C10.8 6.5 10.8 6.6 10.7 6.7C10.6 6.8 10.5 6.9 10.4 6.9C10.3 7 10.1 7 10 7C9.7 7 9.5 6.9 9.3 6.7C9.1 6.5 9 6.3 9 6C9 5.7 9.1 5.5 9.3 5.3V5.3ZM6.3 5.3C6.7 4.9 7.3 4.9 7.7 5.3C7.9 5.5 8 5.7 8 6C8 6.1 8 6.3 7.9 6.4C7.9 6.5 7.8 6.6 7.7 6.7C7.5 6.9 7.3 7 7 7C6.7 7 6.5 6.9 6.3 6.7C6.1 6.5 6 6.3 6 6C6 5.7 6.1 5.5 6.3 5.3V5.3ZM28 28H4V10H28V28Z" fill="black"/>
</svg>
