<svg width="32" height="32" viewBox="0 0 32 32" fill="none" xmlns="http://www.w3.org/2000/svg">
<path d="M1.54576 22.2822C1.61179 22.2822 1.66768 22.2279 1.67718 22.1514L2.03611 19.3065L1.67824 16.3968C1.66758 16.3203 1.61179 16.2656 1.54576 16.2656C1.47803 16.2656 1.42032 16.3215 1.41136 16.3968L1.09766 19.3065L1.41136 22.1504C1.42032 22.2268 1.47803 22.2822 1.54576 22.2822Z" fill="black"/>
<path d="M0.362347 21.2001C0.4272 21.2001 0.479787 21.1497 0.48928 21.0742L0.767467 19.3063L0.48928 17.5054C0.47968 17.4323 0.4272 17.3795 0.362347 17.3795C0.294613 17.3795 0.242133 17.4323 0.232533 17.5064L0 19.3064L0.232533 21.0738C0.242133 21.1486 0.294613 21.2001 0.362347 21.2001Z" fill="black"/>
<path d="M2.96124 15.8553C2.95271 15.7628 2.88497 15.6953 2.80092 15.6953C2.71751 15.6953 2.64967 15.7628 2.64188 15.8553L2.34204 19.3065L2.64188 22.6317C2.64967 22.7237 2.71751 22.7904 2.80092 22.7904C2.88497 22.7904 2.95271 22.7237 2.96124 22.6317L3.30044 19.3065L2.96124 15.8553Z" fill="black"/>
<path d="M4.06949 22.9243C4.16784 22.9243 4.24741 22.8434 4.25701 22.7375L4.57754 19.3076L4.25701 15.76C4.24741 15.6535 4.16784 15.5735 4.06949 15.5735C3.96976 15.5735 3.88901 15.6536 3.88218 15.7606L3.59888 19.3076L3.88218 22.7375C3.88901 22.8435 3.96976 22.9243 4.06949 22.9243Z" fill="black"/>
<path d="M5.34683 22.98C5.46139 22.98 5.55334 22.8882 5.56283 22.7654L5.56177 22.7663L5.86363 19.3075L5.56177 16.0161C5.55323 15.8954 5.46139 15.8022 5.34673 15.8022C5.23046 15.8022 5.13905 15.8954 5.13211 16.0171L4.86523 19.3076L5.13211 22.7656C5.13915 22.8882 5.23057 22.98 5.34683 22.98Z" fill="black"/>
<path d="M7.1608 19.3084L6.8776 13.9567C6.86971 13.8211 6.764 13.7129 6.63429 13.7129C6.50555 13.7129 6.40016 13.8209 6.39227 13.9567L6.1416 19.3084L6.39227 22.7663C6.40016 22.9026 6.50565 23.0093 6.63429 23.0093C6.76411 23.0093 6.86971 22.9026 6.8776 22.7663V22.7673L7.1608 19.3084Z" fill="black"/>
<path d="M7.93447 23.015C8.07729 23.015 8.1958 22.8965 8.20252 22.7452V22.7475L8.46726 19.3093L8.20252 12.7327C8.1958 12.5814 8.07729 12.4629 7.93447 12.4629C7.78833 12.4629 7.67089 12.5814 7.663 12.7327L7.42993 19.3093L7.66406 22.7463C7.67089 22.8965 7.78833 23.015 7.93447 23.015Z" fill="black"/>
<path d="M9.24216 11.8864C9.08131 11.8864 8.95149 12.0184 8.94488 12.1849L8.72803 19.3104L8.94488 22.7113C8.9516 22.877 9.08131 23.0082 9.24216 23.0082C9.40259 23.0082 9.53336 22.878 9.53901 22.7108V22.7125L9.78509 19.3104L9.53901 12.1849C9.53336 12.0173 9.40248 11.8864 9.24216 11.8864Z" fill="black"/>
<path d="M10.5611 23.0149C10.7378 23.0149 10.8785 22.8724 10.8851 22.689V22.691L11.1126 19.3104L10.8851 11.9456C10.8784 11.7628 10.7378 11.6196 10.5611 11.6196C10.3834 11.6196 10.2406 11.7628 10.2378 11.9456L10.0334 19.3104L10.2378 22.691C10.2406 22.8724 10.3834 23.0149 10.5611 23.0149Z" fill="black"/>
<path d="M11.8909 23.0115C12.0815 23.0115 12.2362 22.8555 12.242 22.6576V22.6607L12.4514 19.3109L12.242 12.1334C12.2362 11.9357 12.0815 11.7803 11.8909 11.7803C11.6989 11.7803 11.5443 11.9356 11.5386 12.1334L11.3546 19.3109L11.5398 22.6591C11.5443 22.8555 11.6989 23.0115 11.8909 23.0115Z" fill="black"/>
<path d="M13.7983 19.311L13.6088 12.3952C13.6042 12.1819 13.4372 12.0143 13.23 12.0143C13.0223 12.0143 12.8552 12.1819 12.8508 12.3966L12.6808 19.311L12.8508 22.6388C12.8552 22.8504 13.0222 23.0181 13.23 23.0181C13.4371 23.0181 13.6042 22.8504 13.6088 22.6357V22.6388L13.7983 19.311Z" fill="black"/>
<path d="M14.5794 23.0243C14.7996 23.0243 14.9818 22.8411 14.9853 22.616V22.6178L15.1573 19.3128L14.9853 11.0832C14.982 10.8571 14.7997 10.6743 14.5794 10.6743C14.3593 10.6743 14.1776 10.858 14.1731 11.0843L14.0201 19.3095L14.1731 22.6179C14.1776 22.8411 14.3593 23.0243 14.5794 23.0243Z" fill="black"/>
<path d="M15.9244 9.90015C15.6866 9.90015 15.4938 10.0974 15.4898 10.3378L15.312 19.3139L15.4909 22.57C15.4938 22.8073 15.6867 23.0039 15.9244 23.0039C16.1585 23.0039 16.355 22.8072 16.3561 22.5661V22.57L16.5502 19.3139L16.3561 10.3378C16.355 10.0965 16.1585 9.90015 15.9244 9.90015Z" fill="black"/>
<path d="M17.1541 23.0274C17.1637 23.0282 27.9939 23.0333 28.0634 23.0333C30.2378 23.0333 31.9999 21.2496 31.9999 19.0486C31.9999 16.8487 30.2377 15.0647 28.0634 15.0647C27.5238 15.0647 27.0097 15.175 26.5408 15.3748C26.2291 11.7832 23.2538 8.96655 19.6243 8.96655C18.737 8.96655 17.8719 9.14383 17.1077 9.44325C16.8103 9.55951 16.7307 9.67941 16.7284 9.91173V22.5559C16.7318 22.8002 16.918 23.0031 17.1541 23.0274Z" fill="black"/>
</svg>
