<svg width="448" height="256" viewBox="0 0 448 256" fill="none" xmlns="http://www.w3.org/2000/svg">
<path fill-rule="evenodd" clip-rule="evenodd" d="M224 256C347.712 256 448 198.692 448 128C448 57.3076 347.712 0 224 0C100.288 0 0 57.3076 0 128C0 198.692 100.288 256 224 256ZM258.446 235.898C294.379 227.134 323.94 204.995 339.682 176H283.348C278.336 200.761 269.563 221.672 258.446 235.898ZM285.984 160H346.699C350.148 149.861 352 139.12 352 128C352 116.88 350.148 106.139 346.699 96H285.984C287.3 106.228 288 116.95 288 128C288 139.05 287.3 149.772 285.984 160ZM283.348 80C278.336 55.2391 269.563 34.3284 258.446 20.1022C294.379 28.8665 323.94 51.0046 339.682 80H283.348ZM357.533 80C348.593 60.3697 334.334 43.1594 316.345 29.7812C351.64 41.097 380.175 58.6979 397.523 80H357.533ZM363.463 96H408.049C413.222 106.139 416 116.88 416 128C416 139.12 413.222 149.861 408.049 160H363.463C366.425 149.772 368 139.05 368 128C368 116.95 366.425 106.228 363.463 96ZM267.381 80H180.619C188.323 42.1608 204.852 16 224 16C243.148 16 259.677 42.1608 267.381 80ZM177.988 96H270.012C271.306 106.139 272 116.88 272 128C272 139.12 271.306 149.861 270.012 160H177.988C176.694 149.861 176 139.12 176 128C176 116.88 176.694 106.139 177.988 96ZM164.652 80C169.664 55.2391 178.437 34.3284 189.554 20.1022C153.621 28.8665 124.06 51.0046 108.318 80H164.652ZM101.301 96H162.016C160.7 106.228 160 116.95 160 128C160 139.05 160.7 149.772 162.016 160H101.301C97.8519 149.861 96 139.12 96 128C96 116.88 97.8519 106.139 101.301 96ZM90.4673 80C99.4067 60.3697 113.666 43.1594 131.655 29.7812C96.3605 41.097 67.8245 58.6979 50.4767 80H90.4673ZM39.951 96H84.5366C81.5751 106.228 80 116.95 80 128C80 139.05 81.5751 149.772 84.5366 160H39.951C34.7779 149.861 32 139.12 32 128C32 116.88 34.7779 106.139 39.951 96ZM397.523 176H357.533C348.593 195.63 334.334 212.841 316.345 226.219C351.639 214.903 380.175 197.302 397.523 176ZM164.652 176H108.318C124.06 204.995 153.621 227.134 189.554 235.898C178.437 221.672 169.664 200.761 164.652 176ZM90.4673 176H50.4767C67.8245 197.302 96.3605 214.903 131.655 226.219C113.666 212.841 99.4067 195.63 90.4673 176ZM224 240C243.148 240 259.677 213.839 267.381 176H180.619C188.323 213.839 204.852 240 224 240Z" fill="white" fill-opacity="0.9"/>
</svg>
